<svg width="333" height="90" viewBox="0 0 333 90" fill="none" xmlns="http://www.w3.org/2000/svg">
<path d="M0.92 40L11.16 12H16.92L27.16 40H21.72L19.48 33.52H8.56L6.28 40H0.92ZM9.96 29.52H18.08L14 17.88L9.96 29.52ZM38.8294 40.48C36.9627 40.48 35.296 40.0267 33.8294 39.12C32.3627 38.2133 31.2027 36.9733 30.3494 35.4C29.496 33.8267 29.0694 32.04 29.0694 30.04C29.0694 28.04 29.496 26.2667 30.3494 24.72C31.2027 23.1467 32.3627 21.92 33.8294 21.04C35.296 20.1333 36.9627 19.68 38.8294 19.68C40.3227 19.68 41.6294 19.96 42.7494 20.52C43.8694 21.08 44.776 21.8667 45.4694 22.88V11.2H50.5894V40H46.0294L45.4694 37.16C44.8294 38.04 43.976 38.8133 42.9094 39.48C41.8694 40.1467 40.5094 40.48 38.8294 40.48ZM39.9094 36C41.5627 36 42.9094 35.4533 43.9494 34.36C45.016 33.24 45.5494 31.8133 45.5494 30.08C45.5494 28.3467 45.016 26.9333 43.9494 25.84C42.9094 24.72 41.5627 24.16 39.9094 24.16C38.2827 24.16 36.936 24.7067 35.8694 25.8C34.8027 26.8933 34.2694 28.3067 34.2694 30.04C34.2694 31.7733 34.8027 33.2 35.8694 34.32C36.936 35.44 38.2827 36 39.9094 36ZM65.4831 40.48C63.4298 40.48 61.6165 40.1333 60.0431 39.44C58.4698 38.72 57.2298 37.7067 56.3231 36.4C55.4165 35.0667 54.9498 33.4533 54.9231 31.56H60.3231C60.3765 32.8667 60.8431 33.9733 61.7231 34.88C62.6298 35.76 63.8698 36.2 65.4431 36.2C66.8031 36.2 67.8831 35.88 68.6831 35.24C69.4831 34.5733 69.8831 33.6933 69.8831 32.6C69.8831 31.4533 69.5231 30.56 68.8031 29.92C68.1098 29.28 67.1765 28.76 66.0031 28.36C64.8298 27.96 63.5765 27.5333 62.2431 27.08C60.0831 26.3333 58.4298 25.3733 57.2831 24.2C56.1631 23.0267 55.6031 21.4667 55.6031 19.52C55.5765 17.8667 55.9631 16.4533 56.7631 15.28C57.5898 14.08 58.7098 13.16 60.1231 12.52C61.5365 11.8533 63.1631 11.52 65.0031 11.52C66.8698 11.52 68.5098 11.8533 69.9231 12.52C71.3631 13.1867 72.4831 14.12 73.2831 15.32C74.1098 16.52 74.5498 17.9467 74.6031 19.6H69.1231C69.0965 18.6133 68.7098 17.7467 67.9631 17C67.2431 16.2267 66.2298 15.84 64.9231 15.84C63.8031 15.8133 62.8565 16.0933 62.0831 16.68C61.3365 17.24 60.9631 18.0667 60.9631 19.16C60.9631 20.0933 61.2565 20.84 61.8431 21.4C62.4298 21.9333 63.2298 22.3867 64.2431 22.76C65.2565 23.1333 66.4165 23.5333 67.7231 23.96C69.1098 24.44 70.3765 25 71.5231 25.64C72.6698 26.28 73.5898 27.1333 74.2831 28.2C74.9765 29.24 75.3231 30.5867 75.3231 32.24C75.3231 33.7067 74.9498 35.0667 74.2031 36.32C73.4565 37.5733 72.3498 38.5867 70.8831 39.36C69.4165 40.1067 67.6165 40.48 65.4831 40.48ZM89.3903 40.48C87.3636 40.48 85.577 40.04 84.0303 39.16C82.4836 38.28 81.257 37.0533 80.3503 35.48C79.4703 33.9067 79.0303 32.1067 79.0303 30.08C79.0303 28.0533 79.4703 26.2533 80.3503 24.68C81.257 23.1067 82.4836 21.88 84.0303 21C85.577 20.12 87.3636 19.68 89.3903 19.68C91.9236 19.68 94.057 20.3467 95.7903 21.68C97.5236 22.9867 98.6303 24.8 99.1103 27.12H93.7103C93.4436 26.16 92.9103 25.4133 92.1103 24.88C91.337 24.32 90.417 24.04 89.3503 24.04C87.937 24.04 86.737 24.5733 85.7503 25.64C84.7636 26.7067 84.2703 28.1867 84.2703 30.08C84.2703 31.9733 84.7636 33.4533 85.7503 34.52C86.737 35.5867 87.937 36.12 89.3503 36.12C90.417 36.12 91.337 35.8533 92.1103 35.32C92.9103 34.7867 93.4436 34.0267 93.7103 33.04H99.1103C98.6303 35.28 97.5236 37.08 95.7903 38.44C94.057 39.8 91.9236 40.48 89.3903 40.48ZM110.495 40.48C108.788 40.48 107.388 40.2133 106.295 39.68C105.201 39.12 104.388 38.3867 103.855 37.48C103.321 36.5733 103.055 35.5733 103.055 34.48C103.055 32.64 103.775 31.1467 105.215 30C106.655 28.8533 108.815 28.28 111.695 28.28H116.735V27.8C116.735 26.44 116.348 25.44 115.575 24.8C114.801 24.16 113.841 23.84 112.695 23.84C111.655 23.84 110.748 24.0933 109.975 24.6C109.201 25.08 108.721 25.8 108.535 26.76H103.535C103.668 25.32 104.148 24.0667 104.975 23C105.828 21.9333 106.921 21.12 108.255 20.56C109.588 19.9733 111.081 19.68 112.735 19.68C115.561 19.68 117.788 20.3867 119.415 21.8C121.041 23.2133 121.855 25.2133 121.855 27.8V40H117.495L117.015 36.8C116.428 37.8667 115.601 38.7467 114.535 39.44C113.495 40.1333 112.148 40.48 110.495 40.48ZM111.655 36.48C113.121 36.48 114.255 36 115.055 35.04C115.881 34.08 116.401 32.8933 116.615 31.48H112.255C110.895 31.48 109.921 31.7333 109.335 32.24C108.748 32.72 108.455 33.32 108.455 34.04C108.455 34.8133 108.748 35.4133 109.335 35.84C109.921 36.2667 110.695 36.48 111.655 36.48ZM126.741 48.8V20.16H131.301L131.861 23C132.501 22.12 133.341 21.3467 134.381 20.68C135.447 20.0133 136.821 19.68 138.501 19.68C140.367 19.68 142.034 20.1333 143.501 21.04C144.967 21.9467 146.127 23.1867 146.981 24.76C147.834 26.3333 148.261 28.12 148.261 30.12C148.261 32.12 147.834 33.9067 146.981 35.48C146.127 37.0267 144.967 38.2533 143.501 39.16C142.034 40.04 140.367 40.48 138.501 40.48C137.007 40.48 135.701 40.2 134.581 39.64C133.461 39.08 132.554 38.2933 131.861 37.28V48.8H126.741ZM137.421 36C139.047 36 140.394 35.4533 141.461 34.36C142.527 33.2667 143.061 31.8533 143.061 30.12C143.061 28.3867 142.527 26.96 141.461 25.84C140.394 24.72 139.047 24.16 137.421 24.16C135.767 24.16 134.407 24.72 133.341 25.84C132.301 26.9333 131.781 28.3467 131.781 30.08C131.781 31.8133 132.301 33.24 133.341 34.36C134.407 35.4533 135.767 36 137.421 36ZM162.474 40.48C160.474 40.48 158.701 40.0533 157.154 39.2C155.608 38.3467 154.394 37.1467 153.514 35.6C152.634 34.0533 152.194 32.2667 152.194 30.24C152.194 28.1867 152.621 26.36 153.474 24.76C154.354 23.16 155.554 21.92 157.074 21.04C158.621 20.1333 160.434 19.68 162.514 19.68C164.461 19.68 166.181 20.1067 167.674 20.96C169.168 21.8133 170.328 22.9867 171.154 24.48C172.008 25.9467 172.434 27.5867 172.434 29.4C172.434 29.6933 172.421 30 172.394 30.32C172.394 30.64 172.381 30.9733 172.354 31.32H157.274C157.381 32.8667 157.914 34.08 158.874 34.96C159.861 35.84 161.048 36.28 162.434 36.28C163.474 36.28 164.341 36.0533 165.034 35.6C165.754 35.12 166.288 34.5067 166.634 33.76H171.834C171.461 35.0133 170.834 36.16 169.954 37.2C169.101 38.2133 168.034 39.0133 166.754 39.6C165.501 40.1867 164.074 40.48 162.474 40.48ZM162.514 23.84C161.261 23.84 160.154 24.2 159.194 24.92C158.234 25.6133 157.621 26.68 157.354 28.12H167.234C167.154 26.8133 166.674 25.7733 165.794 25C164.914 24.2267 163.821 23.84 162.514 23.84Z" fill="#30325E"/>
<path d="M137.93 81V63.09H131.81V60H147.92V63.09H141.77V81H137.93ZM156.855 81L149.175 60H153.285L159.225 77.07L165.195 60H169.245L161.565 81H156.855Z" fill="#3787FF"/>
<path d="M217.23 46L219.79 39H221.23L223.79 46H222.43L221.87 44.38H219.14L218.57 46H217.23ZM219.49 43.38H221.52L220.5 40.47L219.49 43.38ZM226.707 46.12C226.241 46.12 225.824 46.0067 225.457 45.78C225.091 45.5533 224.801 45.2433 224.587 44.85C224.374 44.4567 224.267 44.01 224.267 43.51C224.267 43.01 224.374 42.5667 224.587 42.18C224.801 41.7867 225.091 41.48 225.457 41.26C225.824 41.0333 226.241 40.92 226.707 40.92C227.081 40.92 227.407 40.99 227.687 41.13C227.967 41.27 228.194 41.4667 228.367 41.72V38.8H229.647V46H228.507L228.367 45.29C228.207 45.51 227.994 45.7033 227.727 45.87C227.467 46.0367 227.127 46.12 226.707 46.12ZM226.977 45C227.391 45 227.727 44.8633 227.987 44.59C228.254 44.31 228.387 43.9533 228.387 43.52C228.387 43.0867 228.254 42.7333 227.987 42.46C227.727 42.18 227.391 42.04 226.977 42.04C226.571 42.04 226.234 42.1767 225.967 42.45C225.701 42.7233 225.567 43.0767 225.567 43.51C225.567 43.9433 225.701 44.3 225.967 44.58C226.234 44.86 226.571 45 226.977 45ZM233.371 46.12C232.857 46.12 232.404 46.0333 232.011 45.86C231.617 45.68 231.307 45.4267 231.081 45.1C230.854 44.7667 230.737 44.3633 230.731 43.89H232.081C232.094 44.2167 232.211 44.4933 232.431 44.72C232.657 44.94 232.967 45.05 233.361 45.05C233.701 45.05 233.971 44.97 234.171 44.81C234.371 44.6433 234.471 44.4233 234.471 44.15C234.471 43.8633 234.381 43.64 234.201 43.48C234.027 43.32 233.794 43.19 233.501 43.09C233.207 42.99 232.894 42.8833 232.561 42.77C232.021 42.5833 231.607 42.3433 231.321 42.05C231.041 41.7567 230.901 41.3667 230.901 40.88C230.894 40.4667 230.991 40.1133 231.191 39.82C231.397 39.52 231.677 39.29 232.031 39.13C232.384 38.9633 232.791 38.88 233.251 38.88C233.717 38.88 234.127 38.9633 234.481 39.13C234.841 39.2967 235.121 39.53 235.321 39.83C235.527 40.13 235.637 40.4867 235.651 40.9H234.281C234.274 40.6533 234.177 40.4367 233.991 40.25C233.811 40.0567 233.557 39.96 233.231 39.96C232.951 39.9533 232.714 40.0233 232.521 40.17C232.334 40.31 232.241 40.5167 232.241 40.79C232.241 41.0233 232.314 41.21 232.461 41.35C232.607 41.4833 232.807 41.5967 233.061 41.69C233.314 41.7833 233.604 41.8833 233.931 41.99C234.277 42.11 234.594 42.25 234.881 42.41C235.167 42.57 235.397 42.7833 235.571 43.05C235.744 43.31 235.831 43.6467 235.831 44.06C235.831 44.4267 235.737 44.7667 235.551 45.08C235.364 45.3933 235.087 45.6467 234.721 45.84C234.354 46.0267 233.904 46.12 233.371 46.12ZM239.348 46.12C238.841 46.12 238.394 46.01 238.008 45.79C237.621 45.57 237.314 45.2633 237.088 44.87C236.868 44.4767 236.758 44.0267 236.758 43.52C236.758 43.0133 236.868 42.5633 237.088 42.17C237.314 41.7767 237.621 41.47 238.008 41.25C238.394 41.03 238.841 40.92 239.348 40.92C239.981 40.92 240.514 41.0867 240.948 41.42C241.381 41.7467 241.658 42.2 241.778 42.78H240.428C240.361 42.54 240.228 42.3533 240.028 42.22C239.834 42.08 239.604 42.01 239.338 42.01C238.984 42.01 238.684 42.1433 238.438 42.41C238.191 42.6767 238.068 43.0467 238.068 43.52C238.068 43.9933 238.191 44.3633 238.438 44.63C238.684 44.8967 238.984 45.03 239.338 45.03C239.604 45.03 239.834 44.9633 240.028 44.83C240.228 44.6967 240.361 44.5067 240.428 44.26H241.778C241.658 44.82 241.381 45.27 240.948 45.61C240.514 45.95 239.981 46.12 239.348 46.12ZM244.624 46.12C244.197 46.12 243.847 46.0533 243.574 45.92C243.3 45.78 243.097 45.5967 242.964 45.37C242.83 45.1433 242.764 44.8933 242.764 44.62C242.764 44.16 242.944 43.7867 243.304 43.5C243.664 43.2133 244.204 43.07 244.924 43.07H246.184V42.95C246.184 42.61 246.087 42.36 245.894 42.2C245.7 42.04 245.46 41.96 245.174 41.96C244.914 41.96 244.687 42.0233 244.494 42.15C244.3 42.27 244.18 42.45 244.134 42.69H242.884C242.917 42.33 243.037 42.0167 243.244 41.75C243.457 41.4833 243.73 41.28 244.064 41.14C244.397 40.9933 244.77 40.92 245.184 40.92C245.89 40.92 246.447 41.0967 246.854 41.45C247.26 41.8033 247.464 42.3033 247.464 42.95V46H246.374L246.254 45.2C246.107 45.4667 245.9 45.6867 245.634 45.86C245.374 46.0333 245.037 46.12 244.624 46.12ZM244.914 45.12C245.28 45.12 245.564 45 245.764 44.76C245.97 44.52 246.1 44.2233 246.154 43.87H245.064C244.724 43.87 244.48 43.9333 244.334 44.06C244.187 44.18 244.114 44.33 244.114 44.51C244.114 44.7033 244.187 44.8533 244.334 44.96C244.48 45.0667 244.674 45.12 244.914 45.12ZM248.685 48.2V41.04H249.825L249.965 41.75C250.125 41.53 250.335 41.3367 250.595 41.17C250.862 41.0033 251.205 40.92 251.625 40.92C252.092 40.92 252.508 41.0333 252.875 41.26C253.242 41.4867 253.532 41.7967 253.745 42.19C253.958 42.5833 254.065 43.03 254.065 43.53C254.065 44.03 253.958 44.4767 253.745 44.87C253.532 45.2567 253.242 45.5633 252.875 45.79C252.508 46.01 252.092 46.12 251.625 46.12C251.252 46.12 250.925 46.05 250.645 45.91C250.365 45.77 250.138 45.5733 249.965 45.32V48.2H248.685ZM251.355 45C251.762 45 252.098 44.8633 252.365 44.59C252.632 44.3167 252.765 43.9633 252.765 43.53C252.765 43.0967 252.632 42.74 252.365 42.46C252.098 42.18 251.762 42.04 251.355 42.04C250.942 42.04 250.602 42.18 250.335 42.46C250.075 42.7333 249.945 43.0867 249.945 43.52C249.945 43.9533 250.075 44.31 250.335 44.59C250.602 44.8633 250.942 45 251.355 45ZM257.619 46.12C257.119 46.12 256.675 46.0133 256.289 45.8C255.902 45.5867 255.599 45.2867 255.379 44.9C255.159 44.5133 255.049 44.0667 255.049 43.56C255.049 43.0467 255.155 42.59 255.369 42.19C255.589 41.79 255.889 41.48 256.269 41.26C256.655 41.0333 257.109 40.92 257.629 40.92C258.115 40.92 258.545 41.0267 258.919 41.24C259.292 41.4533 259.582 41.7467 259.789 42.12C260.002 42.4867 260.109 42.8967 260.109 43.35C260.109 43.4233 260.105 43.5 260.099 43.58C260.099 43.66 260.095 43.7433 260.089 43.83H256.319C256.345 44.2167 256.479 44.52 256.719 44.74C256.965 44.96 257.262 45.07 257.609 45.07C257.869 45.07 258.085 45.0133 258.259 44.9C258.439 44.78 258.572 44.6267 258.659 44.44H259.959C259.865 44.7533 259.709 45.04 259.489 45.3C259.275 45.5533 259.009 45.7533 258.689 45.9C258.375 46.0467 258.019 46.12 257.619 46.12ZM257.629 41.96C257.315 41.96 257.039 42.05 256.799 42.23C256.559 42.4033 256.405 42.67 256.339 43.03H258.809C258.789 42.7033 258.669 42.4433 258.449 42.25C258.229 42.0567 257.955 41.96 257.629 41.96Z" fill="#30325E"/>
<path d="M217.23 46L219.79 39H221.23L223.79 46H222.43L221.87 44.38H219.14L218.57 46H217.23ZM219.49 43.38H221.52L220.5 40.47L219.49 43.38ZM226.707 46.12C226.241 46.12 225.824 46.0067 225.457 45.78C225.091 45.5533 224.801 45.2433 224.587 44.85C224.374 44.4567 224.267 44.01 224.267 43.51C224.267 43.01 224.374 42.5667 224.587 42.18C224.801 41.7867 225.091 41.48 225.457 41.26C225.824 41.0333 226.241 40.92 226.707 40.92C227.081 40.92 227.407 40.99 227.687 41.13C227.967 41.27 228.194 41.4667 228.367 41.72V38.8H229.647V46H228.507L228.367 45.29C228.207 45.51 227.994 45.7033 227.727 45.87C227.467 46.0367 227.127 46.12 226.707 46.12ZM226.977 45C227.391 45 227.727 44.8633 227.987 44.59C228.254 44.31 228.387 43.9533 228.387 43.52C228.387 43.0867 228.254 42.7333 227.987 42.46C227.727 42.18 227.391 42.04 226.977 42.04C226.571 42.04 226.234 42.1767 225.967 42.45C225.701 42.7233 225.567 43.0767 225.567 43.51C225.567 43.9433 225.701 44.3 225.967 44.58C226.234 44.86 226.571 45 226.977 45ZM233.371 46.12C232.857 46.12 232.404 46.0333 232.011 45.86C231.617 45.68 231.307 45.4267 231.081 45.1C230.854 44.7667 230.737 44.3633 230.731 43.89H232.081C232.094 44.2167 232.211 44.4933 232.431 44.72C232.657 44.94 232.967 45.05 233.361 45.05C233.701 45.05 233.971 44.97 234.171 44.81C234.371 44.6433 234.471 44.4233 234.471 44.15C234.471 43.8633 234.381 43.64 234.201 43.48C234.027 43.32 233.794 43.19 233.501 43.09C233.207 42.99 232.894 42.8833 232.561 42.77C232.021 42.5833 231.607 42.3433 231.321 42.05C231.041 41.7567 230.901 41.3667 230.901 40.88C230.894 40.4667 230.991 40.1133 231.191 39.82C231.397 39.52 231.677 39.29 232.031 39.13C232.384 38.9633 232.791 38.88 233.251 38.88C233.717 38.88 234.127 38.9633 234.481 39.13C234.841 39.2967 235.121 39.53 235.321 39.83C235.527 40.13 235.637 40.4867 235.651 40.9H234.281C234.274 40.6533 234.177 40.4367 233.991 40.25C233.811 40.0567 233.557 39.96 233.231 39.96C232.951 39.9533 232.714 40.0233 232.521 40.17C232.334 40.31 232.241 40.5167 232.241 40.79C232.241 41.0233 232.314 41.21 232.461 41.35C232.607 41.4833 232.807 41.5967 233.061 41.69C233.314 41.7833 233.604 41.8833 233.931 41.99C234.277 42.11 234.594 42.25 234.881 42.41C235.167 42.57 235.397 42.7833 235.571 43.05C235.744 43.31 235.831 43.6467 235.831 44.06C235.831 44.4267 235.737 44.7667 235.551 45.08C235.364 45.3933 235.087 45.6467 234.721 45.84C234.354 46.0267 233.904 46.12 233.371 46.12ZM239.348 46.12C238.841 46.12 238.394 46.01 238.008 45.79C237.621 45.57 237.314 45.2633 237.088 44.87C236.868 44.4767 236.758 44.0267 236.758 43.52C236.758 43.0133 236.868 42.5633 237.088 42.17C237.314 41.7767 237.621 41.47 238.008 41.25C238.394 41.03 238.841 40.92 239.348 40.92C239.981 40.92 240.514 41.0867 240.948 41.42C241.381 41.7467 241.658 42.2 241.778 42.78H240.428C240.361 42.54 240.228 42.3533 240.028 42.22C239.834 42.08 239.604 42.01 239.338 42.01C238.984 42.01 238.684 42.1433 238.438 42.41C238.191 42.6767 238.068 43.0467 238.068 43.52C238.068 43.9933 238.191 44.3633 238.438 44.63C238.684 44.8967 238.984 45.03 239.338 45.03C239.604 45.03 239.834 44.9633 240.028 44.83C240.228 44.6967 240.361 44.5067 240.428 44.26H241.778C241.658 44.82 241.381 45.27 240.948 45.61C240.514 45.95 239.981 46.12 239.348 46.12ZM244.624 46.12C244.197 46.12 243.847 46.0533 243.574 45.92C243.3 45.78 243.097 45.5967 242.964 45.37C242.83 45.1433 242.764 44.8933 242.764 44.62C242.764 44.16 242.944 43.7867 243.304 43.5C243.664 43.2133 244.204 43.07 244.924 43.07H246.184V42.95C246.184 42.61 246.087 42.36 245.894 42.2C245.7 42.04 245.46 41.96 245.174 41.96C244.914 41.96 244.687 42.0233 244.494 42.15C244.3 42.27 244.18 42.45 244.134 42.69H242.884C242.917 42.33 243.037 42.0167 243.244 41.75C243.457 41.4833 243.73 41.28 244.064 41.14C244.397 40.9933 244.77 40.92 245.184 40.92C245.89 40.92 246.447 41.0967 246.854 41.45C247.26 41.8033 247.464 42.3033 247.464 42.95V46H246.374L246.254 45.2C246.107 45.4667 245.9 45.6867 245.634 45.86C245.374 46.0333 245.037 46.12 244.624 46.12ZM244.914 45.12C245.28 45.12 245.564 45 245.764 44.76C245.97 44.52 246.1 44.2233 246.154 43.87H245.064C244.724 43.87 244.48 43.9333 244.334 44.06C244.187 44.18 244.114 44.33 244.114 44.51C244.114 44.7033 244.187 44.8533 244.334 44.96C244.48 45.0667 244.674 45.12 244.914 45.12ZM248.685 48.2V41.04H249.825L249.965 41.75C250.125 41.53 250.335 41.3367 250.595 41.17C250.862 41.0033 251.205 40.92 251.625 40.92C252.092 40.92 252.508 41.0333 252.875 41.26C253.242 41.4867 253.532 41.7967 253.745 42.19C253.958 42.5833 254.065 43.03 254.065 43.53C254.065 44.03 253.958 44.4767 253.745 44.87C253.532 45.2567 253.242 45.5633 252.875 45.79C252.508 46.01 252.092 46.12 251.625 46.12C251.252 46.12 250.925 46.05 250.645 45.91C250.365 45.77 250.138 45.5733 249.965 45.32V48.2H248.685ZM251.355 45C251.762 45 252.098 44.8633 252.365 44.59C252.632 44.3167 252.765 43.9633 252.765 43.53C252.765 43.0967 252.632 42.74 252.365 42.46C252.098 42.18 251.762 42.04 251.355 42.04C250.942 42.04 250.602 42.18 250.335 42.46C250.075 42.7333 249.945 43.0867 249.945 43.52C249.945 43.9533 250.075 44.31 250.335 44.59C250.602 44.8633 250.942 45 251.355 45ZM257.619 46.12C257.119 46.12 256.675 46.0133 256.289 45.8C255.902 45.5867 255.599 45.2867 255.379 44.9C255.159 44.5133 255.049 44.0667 255.049 43.56C255.049 43.0467 255.155 42.59 255.369 42.19C255.589 41.79 255.889 41.48 256.269 41.26C256.655 41.0333 257.109 40.92 257.629 40.92C258.115 40.92 258.545 41.0267 258.919 41.24C259.292 41.4533 259.582 41.7467 259.789 42.12C260.002 42.4867 260.109 42.8967 260.109 43.35C260.109 43.4233 260.105 43.5 260.099 43.58C260.099 43.66 260.095 43.7433 260.089 43.83H256.319C256.345 44.2167 256.479 44.52 256.719 44.74C256.965 44.96 257.262 45.07 257.609 45.07C257.869 45.07 258.085 45.0133 258.259 44.9C258.439 44.78 258.572 44.6267 258.659 44.44H259.959C259.865 44.7533 259.709 45.04 259.489 45.3C259.275 45.5533 259.009 45.7533 258.689 45.9C258.375 46.0467 258.019 46.12 257.619 46.12ZM257.629 41.96C257.315 41.96 257.039 42.05 256.799 42.23C256.559 42.4033 256.405 42.67 256.339 43.03H258.809C258.789 42.7033 258.669 42.4433 258.449 42.25C258.229 42.0567 257.955 41.96 257.629 41.96Z" fill="#30325E"/>
<path d="M217.23 46L219.79 39H221.23L223.79 46H222.43L221.87 44.38H219.14L218.57 46H217.23ZM219.49 43.38H221.52L220.5 40.47L219.49 43.38ZM226.707 46.12C226.241 46.12 225.824 46.0067 225.457 45.78C225.091 45.5533 224.801 45.2433 224.587 44.85C224.374 44.4567 224.267 44.01 224.267 43.51C224.267 43.01 224.374 42.5667 224.587 42.18C224.801 41.7867 225.091 41.48 225.457 41.26C225.824 41.0333 226.241 40.92 226.707 40.92C227.081 40.92 227.407 40.99 227.687 41.13C227.967 41.27 228.194 41.4667 228.367 41.72V38.8H229.647V46H228.507L228.367 45.29C228.207 45.51 227.994 45.7033 227.727 45.87C227.467 46.0367 227.127 46.12 226.707 46.12ZM226.977 45C227.391 45 227.727 44.8633 227.987 44.59C228.254 44.31 228.387 43.9533 228.387 43.52C228.387 43.0867 228.254 42.7333 227.987 42.46C227.727 42.18 227.391 42.04 226.977 42.04C226.571 42.04 226.234 42.1767 225.967 42.45C225.701 42.7233 225.567 43.0767 225.567 43.51C225.567 43.9433 225.701 44.3 225.967 44.58C226.234 44.86 226.571 45 226.977 45ZM233.371 46.12C232.857 46.12 232.404 46.0333 232.011 45.86C231.617 45.68 231.307 45.4267 231.081 45.1C230.854 44.7667 230.737 44.3633 230.731 43.89H232.081C232.094 44.2167 232.211 44.4933 232.431 44.72C232.657 44.94 232.967 45.05 233.361 45.05C233.701 45.05 233.971 44.97 234.171 44.81C234.371 44.6433 234.471 44.4233 234.471 44.15C234.471 43.8633 234.381 43.64 234.201 43.48C234.027 43.32 233.794 43.19 233.501 43.09C233.207 42.99 232.894 42.8833 232.561 42.77C232.021 42.5833 231.607 42.3433 231.321 42.05C231.041 41.7567 230.901 41.3667 230.901 40.88C230.894 40.4667 230.991 40.1133 231.191 39.82C231.397 39.52 231.677 39.29 232.031 39.13C232.384 38.9633 232.791 38.88 233.251 38.88C233.717 38.88 234.127 38.9633 234.481 39.13C234.841 39.2967 235.121 39.53 235.321 39.83C235.527 40.13 235.637 40.4867 235.651 40.9H234.281C234.274 40.6533 234.177 40.4367 233.991 40.25C233.811 40.0567 233.557 39.96 233.231 39.96C232.951 39.9533 232.714 40.0233 232.521 40.17C232.334 40.31 232.241 40.5167 232.241 40.79C232.241 41.0233 232.314 41.21 232.461 41.35C232.607 41.4833 232.807 41.5967 233.061 41.69C233.314 41.7833 233.604 41.8833 233.931 41.99C234.277 42.11 234.594 42.25 234.881 42.41C235.167 42.57 235.397 42.7833 235.571 43.05C235.744 43.31 235.831 43.6467 235.831 44.06C235.831 44.4267 235.737 44.7667 235.551 45.08C235.364 45.3933 235.087 45.6467 234.721 45.84C234.354 46.0267 233.904 46.12 233.371 46.12ZM239.348 46.12C238.841 46.12 238.394 46.01 238.008 45.79C237.621 45.57 237.314 45.2633 237.088 44.87C236.868 44.4767 236.758 44.0267 236.758 43.52C236.758 43.0133 236.868 42.5633 237.088 42.17C237.314 41.7767 237.621 41.47 238.008 41.25C238.394 41.03 238.841 40.92 239.348 40.92C239.981 40.92 240.514 41.0867 240.948 41.42C241.381 41.7467 241.658 42.2 241.778 42.78H240.428C240.361 42.54 240.228 42.3533 240.028 42.22C239.834 42.08 239.604 42.01 239.338 42.01C238.984 42.01 238.684 42.1433 238.438 42.41C238.191 42.6767 238.068 43.0467 238.068 43.52C238.068 43.9933 238.191 44.3633 238.438 44.63C238.684 44.8967 238.984 45.03 239.338 45.03C239.604 45.03 239.834 44.9633 240.028 44.83C240.228 44.6967 240.361 44.5067 240.428 44.26H241.778C241.658 44.82 241.381 45.27 240.948 45.61C240.514 45.95 239.981 46.12 239.348 46.12ZM244.624 46.12C244.197 46.12 243.847 46.0533 243.574 45.92C243.3 45.78 243.097 45.5967 242.964 45.37C242.83 45.1433 242.764 44.8933 242.764 44.62C242.764 44.16 242.944 43.7867 243.304 43.5C243.664 43.2133 244.204 43.07 244.924 43.07H246.184V42.95C246.184 42.61 246.087 42.36 245.894 42.2C245.7 42.04 245.46 41.96 245.174 41.96C244.914 41.96 244.687 42.0233 244.494 42.15C244.3 42.27 244.18 42.45 244.134 42.69H242.884C242.917 42.33 243.037 42.0167 243.244 41.75C243.457 41.4833 243.73 41.28 244.064 41.14C244.397 40.9933 244.77 40.92 245.184 40.92C245.89 40.92 246.447 41.0967 246.854 41.45C247.26 41.8033 247.464 42.3033 247.464 42.95V46H246.374L246.254 45.2C246.107 45.4667 245.9 45.6867 245.634 45.86C245.374 46.0333 245.037 46.12 244.624 46.12ZM244.914 45.12C245.28 45.12 245.564 45 245.764 44.76C245.97 44.52 246.1 44.2233 246.154 43.87H245.064C244.724 43.87 244.48 43.9333 244.334 44.06C244.187 44.18 244.114 44.33 244.114 44.51C244.114 44.7033 244.187 44.8533 244.334 44.96C244.48 45.0667 244.674 45.12 244.914 45.12ZM248.685 48.2V41.04H249.825L249.965 41.75C250.125 41.53 250.335 41.3367 250.595 41.17C250.862 41.0033 251.205 40.92 251.625 40.92C252.092 40.92 252.508 41.0333 252.875 41.26C253.242 41.4867 253.532 41.7967 253.745 42.19C253.958 42.5833 254.065 43.03 254.065 43.53C254.065 44.03 253.958 44.4767 253.745 44.87C253.532 45.2567 253.242 45.5633 252.875 45.79C252.508 46.01 252.092 46.12 251.625 46.12C251.252 46.12 250.925 46.05 250.645 45.91C250.365 45.77 250.138 45.5733 249.965 45.32V48.2H248.685ZM251.355 45C251.762 45 252.098 44.8633 252.365 44.59C252.632 44.3167 252.765 43.9633 252.765 43.53C252.765 43.0967 252.632 42.74 252.365 42.46C252.098 42.18 251.762 42.04 251.355 42.04C250.942 42.04 250.602 42.18 250.335 42.46C250.075 42.7333 249.945 43.0867 249.945 43.52C249.945 43.9533 250.075 44.31 250.335 44.59C250.602 44.8633 250.942 45 251.355 45ZM257.619 46.12C257.119 46.12 256.675 46.0133 256.289 45.8C255.902 45.5867 255.599 45.2867 255.379 44.9C255.159 44.5133 255.049 44.0667 255.049 43.56C255.049 43.0467 255.155 42.59 255.369 42.19C255.589 41.79 255.889 41.48 256.269 41.26C256.655 41.0333 257.109 40.92 257.629 40.92C258.115 40.92 258.545 41.0267 258.919 41.24C259.292 41.4533 259.582 41.7467 259.789 42.12C260.002 42.4867 260.109 42.8967 260.109 43.35C260.109 43.4233 260.105 43.5 260.099 43.58C260.099 43.66 260.095 43.7433 260.089 43.83H256.319C256.345 44.2167 256.479 44.52 256.719 44.74C256.965 44.96 257.262 45.07 257.609 45.07C257.869 45.07 258.085 45.0133 258.259 44.9C258.439 44.78 258.572 44.6267 258.659 44.44H259.959C259.865 44.7533 259.709 45.04 259.489 45.3C259.275 45.5533 259.009 45.7533 258.689 45.9C258.375 46.0467 258.019 46.12 257.619 46.12ZM257.629 41.96C257.315 41.96 257.039 42.05 256.799 42.23C256.559 42.4033 256.405 42.67 256.339 43.03H258.809C258.789 42.7033 258.669 42.4433 258.449 42.25C258.229 42.0567 257.955 41.96 257.629 41.96Z" fill="#30325E"/>
<path d="M245.245 10.7053H268.015C268.904 10.7053 269.786 10.7424 270.658 10.8151C272.749 10.988 274.758 9.97738 275.804 8.15829C277.755 4.76644 275.528 0.480039 271.629 0.151592C270.436 0.0513209 269.232 0 268.014 0H245.401C221.78 0 201.837 19.3247 202.001 42.946C202.082 54.6012 206.844 65.1462 214.493 72.7953C222.208 80.5106 232.87 85.2794 244.644 85.2794H268.014C269.232 85.2794 270.437 85.2281 271.629 85.1278C275.528 84.7986 277.755 80.513 275.804 77.1211C274.758 75.302 272.749 74.2914 270.658 74.4644C269.786 74.537 268.903 74.5741 268.014 74.5741H244.644C226.772 74.5741 212.284 59.8232 212.715 41.8652C213.133 24.4314 227.809 10.7053 245.245 10.7053Z" fill="#30325E"/>
<path d="M214.313 65.2481L206.615 84.921C205.377 88.0838 208.685 91.1109 211.727 89.599L233.303 78.8684L214.313 65.2481Z" fill="#30325E"/>
<path d="M285.587 25.131C284.248 23.7872 282.742 22.5926 281.111 21.5789C280.052 20.9188 278.801 20.7238 277.585 21.0286C276.366 21.3349 275.347 22.1055 274.717 23.1998C274.322 23.8954 274.112 24.677 274.112 25.4594C274.112 27.0638 274.935 28.5378 276.314 29.4016C280.921 32.2779 283.671 37.2283 283.671 42.6429C283.671 48.0552 280.92 53.0048 276.311 55.8819C274.186 57.2146 273.488 59.9409 274.722 62.0908C275.542 63.5088 277.07 64.3899 278.708 64.3899C279.556 64.3899 280.385 64.1546 281.103 63.7085C288.449 59.1545 292.835 51.2789 292.835 42.6429C292.836 36.0242 290.261 29.8058 285.587 25.131Z" fill="#00C3AD"/>
<path d="M271.204 49.0176C267.681 49.0176 264.825 46.1619 264.825 42.6389C264.825 39.116 267.681 36.2603 271.204 36.2603C274.727 36.2603 277.583 39.116 277.583 42.6389C277.583 46.1619 274.727 49.0176 271.204 49.0176Z" fill="#FF7859"/>
<path d="M310.649 42.6444C310.649 57.967 302.575 71.3946 290.45 78.9118C289.579 79.451 288.617 79.7021 287.666 79.7021C285.807 79.7021 283.992 78.7318 282.996 77.0074C281.541 74.4746 282.412 71.2864 284.891 69.7326C293.926 64.0922 299.944 54.0596 299.944 42.6444C299.944 31.2293 293.926 21.188 284.891 15.5475C283.23 14.5054 282.286 12.7273 282.286 10.9043C282.286 10.0153 282.52 9.10808 282.996 8.27275C284.505 5.64991 287.891 4.77905 290.459 6.37787C293.261 8.12037 295.848 10.1684 298.165 12.4944C305.88 20.209 310.649 30.8701 310.649 42.6444Z" fill="#FF4653"/>
<path d="M245.245 10.7053H268.015C268.904 10.7053 269.786 10.7424 270.658 10.8151C272.749 10.988 274.758 9.97738 275.804 8.15829C277.755 4.76644 275.528 0.480039 271.629 0.151592C270.436 0.0513209 269.232 0 268.014 0H245.401C221.78 0 201.837 19.3247 202.001 42.946C202.082 54.6012 206.844 65.1462 214.493 72.7953C222.208 80.5106 232.87 85.2794 244.644 85.2794H268.014C269.232 85.2794 270.437 85.2281 271.629 85.1278C275.528 84.7986 277.755 80.513 275.804 77.1211C274.758 75.302 272.749 74.2914 270.658 74.4644C269.786 74.537 268.903 74.5741 268.014 74.5741H244.644C226.772 74.5741 212.284 59.8232 212.715 41.8652C213.133 24.4314 227.809 10.7053 245.245 10.7053Z" fill="#30325E"/>
<path d="M214.313 65.2481L206.615 84.921C205.377 88.0838 208.685 91.1109 211.727 89.599L233.303 78.8684L214.313 65.2481Z" fill="#30325E"/>
<path d="M285.587 25.131C284.248 23.7872 282.742 22.5926 281.111 21.5789C280.052 20.9188 278.801 20.7238 277.585 21.0286C276.366 21.3349 275.347 22.1055 274.717 23.1998C274.322 23.8954 274.112 24.677 274.112 25.4594C274.112 27.0638 274.935 28.5378 276.314 29.4016C280.921 32.2779 283.671 37.2283 283.671 42.6429C283.671 48.0552 280.92 53.0048 276.311 55.8819C274.186 57.2146 273.488 59.9409 274.722 62.0908C275.542 63.5088 277.07 64.3899 278.708 64.3899C279.556 64.3899 280.385 64.1546 281.103 63.7085C288.449 59.1545 292.835 51.2789 292.835 42.6429C292.836 36.0242 290.261 29.8058 285.587 25.131Z" fill="#00C3AD"/>
<path d="M271.204 49.0176C267.681 49.0176 264.825 46.1619 264.825 42.6389C264.825 39.116 267.681 36.2603 271.204 36.2603C274.727 36.2603 277.583 39.116 277.583 42.6389C277.583 46.1619 274.727 49.0176 271.204 49.0176Z" fill="#FF7859"/>
<path d="M310.649 42.6444C310.649 57.967 302.575 71.3946 290.45 78.9118C289.579 79.451 288.617 79.7021 287.666 79.7021C285.807 79.7021 283.992 78.7318 282.996 77.0074C281.541 74.4746 282.412 71.2864 284.891 69.7326C293.926 64.0922 299.944 54.0596 299.944 42.6444C299.944 31.2293 293.926 21.188 284.891 15.5475C283.23 14.5054 282.286 12.7273 282.286 10.9043C282.286 10.0153 282.52 9.10808 282.996 8.27275C284.505 5.64991 287.891 4.77905 290.459 6.37787C293.261 8.12037 295.848 10.1684 298.165 12.4944C305.88 20.209 310.649 30.8701 310.649 42.6444Z" fill="#3787FF"/>
<path d="M245.245 10.7053H268.015C268.904 10.7053 269.786 10.7424 270.658 10.8151C272.749 10.988 274.758 9.97738 275.804 8.15829C277.755 4.76644 275.528 0.480039 271.629 0.151592C270.436 0.0513209 269.232 0 268.014 0H245.401C221.78 0 201.837 19.3247 202.001 42.946C202.082 54.6012 206.844 65.1462 214.493 72.7953C222.208 80.5106 232.87 85.2794 244.644 85.2794H268.014C269.232 85.2794 270.437 85.2281 271.629 85.1278C275.528 84.7986 277.755 80.513 275.804 77.1211C274.758 75.302 272.749 74.2914 270.658 74.4644C269.786 74.537 268.903 74.5741 268.014 74.5741H244.644C226.772 74.5741 212.284 59.8232 212.715 41.8652C213.133 24.4314 227.809 10.7053 245.245 10.7053Z" fill="#30325E"/>
<path d="M214.313 65.2481L206.615 84.921C205.377 88.0838 208.685 91.1109 211.727 89.599L233.303 78.8684L214.313 65.2481Z" fill="#30325E"/>
<path d="M285.587 25.131C284.248 23.7872 282.742 22.5926 281.111 21.5788C280.052 20.9188 278.801 20.7238 277.585 21.0285C276.366 21.3349 275.347 22.1055 274.717 23.1998C274.322 23.8953 274.112 24.677 274.112 25.4594C274.112 27.0637 274.935 28.5378 276.314 29.4016C280.921 32.2778 283.671 37.2282 283.671 42.6429C283.671 48.0552 280.92 53.0048 276.311 55.8818C274.186 57.2146 273.488 59.9408 274.722 62.0907C275.542 63.5087 277.07 64.3899 278.708 64.3899C279.556 64.3899 280.385 64.1546 281.103 63.7085C288.449 59.1545 292.835 51.2788 292.835 42.6429C292.836 36.0242 290.261 29.8058 285.587 25.131Z" fill="#FF4653"/>
<path d="M271.204 49.0176C267.681 49.0176 264.825 46.1618 264.825 42.6389C264.825 39.116 267.681 36.2603 271.204 36.2603C274.727 36.2603 277.583 39.116 277.583 42.6389C277.583 46.1618 274.727 49.0176 271.204 49.0176Z" fill="#FF7859"/>
</svg>
