<svg width="80" height="80" viewBox="0 0 80 80" fill="none" xmlns="http://www.w3.org/2000/svg">
<rect x="0.632781" y="1.21597" width="78.0432" height="78.0432" rx="25.8682" stroke="#3787FF" stroke-width="0.87689"/>
<path opacity="0.4" d="M31.3925 21.3844H48.4823C51.7163 21.3844 54.3899 22.5175 56.2558 24.4678C58.1234 26.4197 59.2137 29.2238 59.2137 32.6202V48.7337C59.2137 52.1291 58.123 54.9327 56.2549 56.8844C54.3884 58.8345 51.7144 59.9676 48.4804 59.9676H31.3925C28.1585 59.9676 25.4854 58.8345 23.62 56.8845C21.7529 54.9328 20.6631 52.1292 20.6631 48.7337V32.6202C20.6631 29.2238 21.7529 26.4197 23.62 24.4678C25.4855 22.5175 28.1585 21.3844 31.3925 21.3844Z" fill="#3787FF" stroke="#3787FF" stroke-width="0.87689"/>
<path d="M33.7166 35.5436C36.0231 35.5436 37.9551 37.0825 38.5859 39.1936H49.8228C50.631 39.1936 51.3013 39.8645 51.3013 40.6734V44.3234C51.3013 45.1521 50.631 45.8032 49.8228 45.8032C48.9948 45.8032 48.3442 45.1521 48.3442 44.3234V42.1531H45.7223V44.3234C45.7223 45.1521 45.052 45.8032 44.2437 45.8032C43.4158 45.8032 42.7652 45.1521 42.7652 44.3234V42.1531H38.5859C37.9551 44.2643 36.0231 45.8032 33.7166 45.8032C30.8778 45.8032 28.5713 43.5145 28.5713 40.6734C28.5713 37.852 30.8778 35.5436 33.7166 35.5436ZM33.7166 38.5031C32.514 38.5031 31.5284 39.4699 31.5284 40.6734C31.5284 41.8769 32.514 42.8437 33.7166 42.8437C34.8994 42.8437 35.8851 41.8769 35.8851 40.6734C35.8851 39.4699 34.8994 38.5031 33.7166 38.5031Z" fill="white"/>
</svg>
