<svg width="80" height="80" viewBox="0 0 80 80" fill="none" xmlns="http://www.w3.org/2000/svg">
<rect x="0.632781" y="1.14035" width="78.0432" height="78.0432" rx="25.8682" stroke="#3787FF" stroke-width="0.87689"/>
<path d="M48.3972 32.3693C53.3544 32.3693 57.3736 36.3031 57.3736 41.155V51.5448C57.3736 56.3967 53.3544 60.3305 48.3972 60.3305H30.6024C25.6452 60.3305 21.626 56.3967 21.626 51.5448V41.155C21.626 36.3031 25.6452 32.3693 30.6024 32.3693H48.3972ZM39.4891 42.1986C38.4635 42.1986 37.6302 43.0142 37.6302 44.018V48.6608C37.6302 49.6856 38.4635 50.5012 39.4891 50.5012C40.5361 50.5012 41.3695 49.6856 41.3695 48.6608V44.018C41.3695 43.0142 40.5361 42.1986 39.4891 42.1986Z" fill="#3787FF"/>
<path opacity="0.4" d="M51.1131 29.5957V32.6909C50.3652 32.4818 49.5746 32.3772 48.7627 32.3772H47.3738V29.5957C47.3738 25.3503 43.8482 21.8996 39.5106 21.8996C35.173 21.8996 31.6474 25.3294 31.626 29.5539V32.3772H30.2585C29.4252 32.3772 28.6346 32.4818 27.8867 32.7118V29.5957C27.9081 23.3217 33.1004 18.2397 39.4678 18.2397C45.9208 18.2397 51.1131 23.3217 51.1131 29.5957Z" fill="#3787FF"/>
</svg>
