<svg width="80" height="80" viewBox="0 0 80 80" fill="none" xmlns="http://www.w3.org/2000/svg">
<rect x="0.632781" y="1.21597" width="78.0432" height="78.0432" rx="25.8682" stroke="#3787FF" stroke-width="0.87689"/>
<path d="M39.39 45.7999C31.9401 45.7999 25.6543 47.0183 25.6543 51.7204C25.6543 56.4245 31.9807 57.6 39.39 57.6C46.8398 57.6 53.1256 56.3816 53.1256 51.6795C53.1256 46.9755 46.7992 45.7999 39.39 45.7999Z" fill="#3787FF"/>
<path opacity="0.4" d="M39.3902 41.3201C44.4348 41.3201 48.4797 37.2485 48.4797 32.1708C48.4797 27.0911 44.4348 23.0215 39.3902 23.0215C34.3457 23.0215 30.3008 27.0911 30.3008 32.1708C30.3008 37.2485 34.3457 41.3201 39.3902 41.3201Z" fill="#3787FF"/>
<path opacity="0.4" d="M59.124 34.3011C60.4291 29.163 56.6027 24.5485 51.7302 24.5485C51.2004 24.5485 50.6938 24.6069 50.1989 24.7062C50.1331 24.7217 50.0597 24.7548 50.021 24.8132C49.9765 24.8872 50.0094 24.9864 50.0577 25.0506C51.5214 27.1175 52.3625 29.634 52.3625 32.3354C52.3625 34.9239 51.591 37.3373 50.2375 39.3399C50.0983 39.5462 50.2221 39.8246 50.4676 39.8674C50.8079 39.9277 51.156 39.9589 51.5117 39.9686C55.0597 40.062 58.2442 37.7635 59.124 34.3011Z" fill="#3787FF"/>
<path d="M62.8419 46.3986C62.1923 45.0051 60.6242 44.0495 58.2402 43.5804C57.1148 43.3041 54.0696 42.9148 51.237 42.9674C51.1944 42.9732 51.1712 43.0024 51.1674 43.0219C51.1616 43.0491 51.1732 43.0958 51.2292 43.125C52.5382 43.777 57.5982 46.6127 56.9621 52.5935C56.935 52.8523 57.1419 53.0761 57.3991 53.0372C58.6443 52.8582 61.8481 52.1653 62.8419 50.0069C63.391 48.8664 63.391 47.541 62.8419 46.3986Z" fill="#3787FF"/>
<path opacity="0.4" d="M28.8001 24.7068C28.307 24.6056 27.7985 24.5491 27.2687 24.5491C22.3963 24.5491 18.5699 29.1637 19.8769 34.3017C20.7547 37.7641 23.9392 40.0626 27.4872 39.9692C27.843 39.9595 28.1929 39.9264 28.5313 39.868C28.7769 39.8252 28.9006 39.5469 28.7614 39.3406C27.4079 37.3359 26.6365 34.9245 26.6365 32.336C26.6365 29.6327 27.4795 27.1162 28.9431 25.0512C28.9896 24.987 29.0244 24.8878 28.9779 24.8138C28.9393 24.7535 28.8677 24.7223 28.8001 24.7068Z" fill="#3787FF"/>
<path d="M20.7602 43.5798C18.3762 44.0489 16.81 45.0045 16.1604 46.398C15.6093 47.5404 15.6093 48.8658 16.1604 50.0083C17.1542 52.1647 20.358 52.8595 21.6032 53.0366C21.8604 53.0755 22.0653 52.8537 22.0382 52.5929C21.4021 46.614 26.4621 43.7784 27.773 43.1264C27.8272 43.0952 27.8388 43.0505 27.833 43.0213C27.8291 43.0018 27.8078 42.9726 27.7653 42.9687C24.9308 42.9142 21.8874 43.3035 20.7602 43.5798Z" fill="#3787FF"/>
</svg>
